# xmcd
#
# Track frame offsets:
#	150
#	46098
#	89983
#	153789
#	174178
#	193225
#	224779
#	241185
#	244449
#	281614
#
# Disc length: 4376 seconds
#
# Revision: 1
# Processed by: cddbd v1.5.2PL0 Copyright (c) Steve Scherf et al.
# Submitted via: audiograbber 1.83.01
#
DISCID=9111160a
DTITLE=Grateful Dead - 79-04-16 Club Front, San Rafael CA
DYEAR=1900
DGENRE=
TTITLE0=Jam
TTITLE1=Not Fade Away
TTITLE2=Jam > Space
TTITLE3=Drums
TTITLE4=Jam
TTITLE5=Tuning > Passenger
TTITLE6=Passenger
TTITLE7=I Need A Miracle (aborted)
TTITLE8=Bertha > Good Lovin' (aborted)
TTITLE9=Bertha (reprise) > Good Lovin'
EXTD=
EXTT0=
EXTT1=
EXTT2=
EXTT3=
EXTT4=
EXTT5=
EXTT6=
EXTT7=
EXTT8=
EXTT9=
PLAYORDER=
